<svg width="181" height="70" viewBox="0 0 181 70" fill="none" xmlns="http://www.w3.org/2000/svg">
<g clip-path="url(#clip0_2101_1415)">
<path d="M176.973 58.3577C178.562 61.0639 179.207 64.2107 180.922 66.854V68.4117C174.848 68.4274 168.775 68.4431 162.718 68.5061C161.742 68.5061 161.223 68.2543 160.861 67.2788C159.681 64.1792 158.328 61.1583 157.132 58.0745C156.723 57.0203 156.251 56.5641 155.039 56.5798C147.409 56.6427 139.762 56.627 132.131 56.5798C130.982 56.5798 130.385 56.8787 129.96 57.9958C128.811 61.0954 127.521 64.1635 126.294 67.2316C126.026 67.8924 125.853 68.5218 124.862 68.5061C118.741 68.4589 112.605 68.4903 106.264 68.4903C107.161 66.146 107.979 63.9904 108.813 61.8349C108.876 61.7248 108.924 61.6146 108.986 61.5045C108.861 61.5517 108.735 61.6146 108.625 61.6618C106.469 62.7003 104.597 64.3209 102.205 64.903C101.733 64.3681 101.277 63.8174 100.773 63.3139C97.013 59.4276 93.2526 55.5414 89.4922 51.6708C92.9222 50.7268 96.1319 49.3579 98.6965 46.7776C104.439 47.6272 110.166 48.4611 115.909 49.3107C127.694 51.0729 139.479 52.8823 151.263 54.6288C159.838 55.9032 168.413 57.1305 176.988 58.3892L176.973 58.3577Z" fill="#2B7147"/>
<path d="M40.0897 0C40.4988 0.723758 41.2698 0.456282 41.8519 0.534952C47.3116 1.30591 52.252 3.30411 56.689 6.56102C56.9407 6.7341 57.2239 6.8757 57.8533 7.23758C57.8533 5.61699 57.9005 4.29535 57.8533 2.98944C57.8061 1.98247 58.0421 1.43178 59.2221 1.46325C63.7063 1.54192 68.2062 1.54192 72.6903 1.55765C73.8389 7.31625 75.0189 13.0748 76.5766 18.739C76.5766 25.5203 76.5766 32.3016 76.5766 39.0672C70.8809 34.2369 65.1853 29.4223 59.4896 24.5763C59.0333 24.183 58.6242 23.7739 57.9791 23.8211C57.9162 22.3264 57.8375 20.8316 57.7589 19.1167C56.689 19.8561 55.8551 20.4226 55.0212 21.0047C50.1751 16.8667 45.3606 12.713 40.4988 8.60643C37.3206 5.91594 34.0165 3.38278 31.0742 0.456282C31.1686 0.298944 31.3102 0.157339 31.4518 0C34.3311 0 37.2104 0 40.0897 0Z" fill="#91C74C"/>
<path d="M17.3234 65.3268C8.08764 60.2291 2.56505 52.3307 0.724183 42.1508C-1.80897 28.2264 2.29757 16.4417 13.4214 7.31605C13.626 7.15871 13.862 7.03284 14.0822 6.89124C14.57 7.56779 15.1049 8.22861 15.5455 8.95237C18.2517 13.3893 20.9422 17.842 23.6327 22.279C16.5839 30.7123 17.9213 45.4235 27.9438 51.1978C27.7235 51.5912 27.5504 52.0317 27.283 52.3936C23.9788 56.7047 20.6433 61.0158 17.3234 65.3268Z" fill="#2A7047"/>
<path d="M17.3242 65.3266C20.6441 61.0155 23.9639 56.7044 27.2838 52.3933C27.5512 52.0314 27.7243 51.6066 27.9446 51.1975C29.8798 51.9528 31.8151 52.6451 33.9235 52.8181C40.2485 53.3373 45.2046 50.7885 49.1853 46.0998C50.1451 44.9669 50.8688 44.8568 52.0331 45.8008C53.7953 47.2011 55.6834 48.4284 57.9963 50.0647V43.425C64.2112 43.1575 70.3631 44.2746 76.5622 44.196C76.5622 45.6278 76.5622 47.0595 76.5622 48.4756C69.1359 53.479 61.678 58.4509 54.2988 63.5329C52.9614 64.4612 51.2779 65.0434 50.4283 66.601L50.3339 66.5695L50.444 66.5853C50.2709 66.6639 50.0979 66.7426 49.9405 66.837C38.8482 71.4156 27.976 71.1324 17.3714 65.3266H17.3242Z" fill="#249951"/>
<path d="M23.6169 22.2793C20.9264 17.8266 18.2359 13.3897 15.5297 8.95271C15.0891 8.24469 14.5542 7.58387 14.0664 6.89157C19.117 3.14691 24.7497 0.944171 31.0433 0.456421C34.0012 3.38292 37.3053 5.91607 40.4678 8.60657C45.3296 12.7288 50.1599 16.8668 54.9902 21.0049C53.763 21.9804 52.4728 22.8772 51.3242 23.9314C50.333 24.8439 49.6879 24.7495 48.8225 23.7268C47.0603 21.6027 45.0307 19.7147 42.4503 18.6448C35.3858 15.7025 29.0608 16.8354 23.6011 22.2793H23.6169Z" fill="#49B655"/>
<path d="M50.3946 66.6008C51.2443 65.0431 52.9278 64.461 54.2652 63.5327C61.6444 58.4506 69.1022 53.4787 76.5286 48.4753C76.5601 48.9946 76.6702 49.5138 76.5915 50.0173C76.3555 51.6221 76.9534 52.1885 78.5897 52.0469C80.1317 51.9211 81.6893 52.0627 83.247 52.0941C83.9078 57.5223 84.5529 62.9505 85.2137 68.3787C76.5443 68.4102 67.875 68.4259 59.2213 68.4888C58.1514 68.4888 57.884 68.0483 57.9154 67.0885C57.9626 65.5466 57.9154 64.0047 57.9154 62.1953C55.2879 63.8316 53.1953 65.8455 50.3789 66.585L50.3946 66.6008Z" fill="#3CB779"/>
<path d="M85.2148 68.3799C84.554 62.9517 83.9089 57.5235 83.248 52.0953C85.3249 51.938 87.4018 51.7806 89.4787 51.639C93.2391 55.5253 96.9995 59.3958 100.76 63.2821C101.248 63.8013 101.72 64.3363 102.192 64.8712C96.8264 67.4358 91.1307 68.4428 85.2148 68.3799Z" fill="#D7DF38"/>
<path d="M49.875 66.838C50.0481 66.7594 50.2211 66.6807 50.3785 66.5863C50.2054 66.665 50.0323 66.7436 49.875 66.838Z" fill="#3CB779"/>
<path d="M176.973 58.3567C168.398 57.1138 159.823 55.8708 151.249 54.5963C139.464 52.8342 127.679 51.0405 115.895 49.2783C110.167 48.4129 104.425 47.579 98.6816 46.7451C99.2953 45.927 99.9561 45.1246 100.491 44.2592C102.678 40.7663 102.851 36.8643 102.82 32.9151C103.591 32.5689 104.393 32.2857 105.133 31.8924C110.136 29.2333 115.124 26.5586 120.127 23.8838C121.181 26.0708 121.291 28.4781 121.842 31.2316C123.211 28.1477 124.438 25.3943 125.649 22.6251C130.669 25.174 135.672 27.7386 140.691 30.2875C139.369 33.6703 138.111 37.0846 136.679 40.4201C135.987 42.025 136.459 42.2453 137.969 42.2138C141.745 42.1351 145.537 42.1509 149.313 42.2138C150.619 42.2295 151.028 42.0565 150.493 40.6404C149.722 38.595 148.558 36.6597 148.291 34.4413C148.92 34.3626 149.408 34.7402 149.911 35.0077C155.009 37.6195 160.059 40.2943 165.189 42.8274C167.266 43.8501 169.169 45.2662 171.498 45.7696L171.467 45.7382C171.561 45.864 171.671 45.9899 171.765 46.1158C173.622 50.1437 175.384 54.2187 176.942 58.3882L176.973 58.3567Z" fill="#D7DF38"/>
<path d="M140.71 30.2877C135.69 27.7388 130.687 25.1742 125.668 22.6253C128.563 15.7338 131.458 8.85815 134.322 1.96671C134.668 1.14855 135.187 0.991211 135.989 0.991211C141.15 1.00694 146.311 1.02268 151.456 0.991211C152.353 0.991211 152.856 1.24295 153.234 2.12405C159.276 16.4261 165.349 30.7125 171.406 44.9989C171.501 45.2349 171.501 45.5023 171.532 45.7541C169.204 45.2506 167.3 43.8345 165.223 42.8118C160.094 40.2787 155.027 37.6039 149.945 34.9921C149.442 34.7246 148.954 34.347 148.325 34.4257H148.372L148.026 34.0795C146.594 30.5709 145.162 27.0465 143.62 23.2546C142.535 25.8822 141.638 28.0849 140.725 30.2877H140.71Z" fill="#2A7047"/>
<path d="M120.144 23.884C115.157 26.5588 110.153 29.2335 105.15 31.8925C104.41 32.2859 103.608 32.5848 102.837 32.9152C102.097 26.7633 99.0136 22.2791 93.3809 19.5729C95.5836 14.365 97.8178 9.18857 100.493 4.20093C110.232 7.58371 117.092 13.8458 120.144 23.8683V23.884Z" fill="#91C74C"/>
<path d="M100.491 4.20058C97.8167 9.18822 95.5825 14.3804 93.3797 19.5726C88.2819 17.5744 82.9482 17.9992 77.6616 17.9677C77.0952 17.9677 76.6389 18.0621 76.5445 18.7387C75.0026 13.0745 73.8068 7.31589 72.6582 1.55729C80.415 1.55729 88.2033 0.94367 95.8657 2.7216C97.4548 3.08348 99.0282 3.46109 100.491 4.20058Z" fill="#D7DF38"/>
<path d="M108.611 61.6454C108.737 61.5982 108.863 61.5352 108.973 61.488C108.91 61.5982 108.863 61.7083 108.8 61.8184C108.737 61.7555 108.674 61.6926 108.611 61.6296V61.6454Z" fill="#F9FAFA"/>
<path d="M57.9798 43.4253C57.7595 36.8957 57.8225 30.3662 57.9483 23.8366C58.6091 23.7894 59.0025 24.1985 59.4588 24.5918C65.1387 29.4221 70.8501 34.2524 76.5458 39.0827C76.5458 40.782 76.5458 42.497 76.5458 44.1962C70.3466 44.2749 64.1947 43.1735 57.9798 43.4253Z" fill="#49B655"/>
<path d="M148.356 34.4414C148.057 34.5043 148.025 34.3155 148.01 34.0952C148.12 34.2054 148.246 34.3312 148.356 34.4414Z" fill="#D7DF38"/>
</g>
<defs>
<clipPath id="clip0_2101_1415">
<rect width="180.94" height="70" fill="white"/>
</clipPath>
</defs>
</svg>
